# Blender 3.6.2
# www.blender.org
mtllib Extractor.mtl
o Cube
v -1.000000 0.000000 2.000000
v -2.000000 0.000000 1.000000
v -2.000000 0.000000 -1.000000
v -1.000000 0.000000 -2.000000
v 2.000000 0.000000 1.000000
v 1.000000 0.000000 2.000000
v 1.000000 0.000000 -2.000000
v 2.000000 0.000000 -1.000000
v -1.000000 2.500000 0.585786
v -2.000000 1.500000 1.000000
v -0.585786 2.500000 1.000000
v -1.000000 1.500000 2.000000
v -0.585786 2.500000 -1.000000
v -1.000000 1.500000 -2.000000
v -1.000000 2.500000 -0.585786
v -2.000000 1.500000 -1.000000
v 0.585786 2.500000 1.000000
v 1.000000 1.500000 2.000000
v 1.000000 2.500000 0.585786
v 2.000000 1.500000 1.000000
v 1.000000 2.500000 -0.585786
v 2.000000 1.500000 -1.000000
v 0.585786 2.500000 -1.000000
v 1.000000 1.500000 -2.000000
v -0.585786 2.500000 1.000000
v -1.000000 2.500000 0.585786
v -1.000000 2.500000 -0.585786
v -0.585786 2.500000 -1.000000
v 0.585786 2.500000 -1.000000
v 1.000000 2.500000 -0.585786
v 1.000000 2.500000 0.585786
v 0.585786 2.500000 1.000000
v -1.000000 3.000000 -0.585786
v -1.000000 3.000000 0.585786
v 1.000000 3.000000 -0.585786
v 1.000000 3.000000 0.585786
v -0.585786 3.000000 1.000000
v 0.585786 3.000000 1.000000
v -0.585786 3.000000 -1.000000
v 0.585786 3.000000 -1.000000
vn -0.7071 -0.0000 -0.7071
vn 0.7071 -0.0000 -0.7071
vn -0.0000 -0.0000 1.0000
vn -0.0000 1.0000 -0.0000
vn 0.7071 -0.0000 0.7071
vn -1.0000 -0.0000 -0.0000
vn -0.0000 -0.0000 -1.0000
vn 1.0000 -0.0000 -0.0000
vn -0.0000 -1.0000 -0.0000
vn -0.5000 0.7071 0.5000
vn -0.5000 0.7071 -0.5000
vn 0.5000 0.7071 -0.5000
vn 0.5000 0.7071 0.5000
vn -0.7071 0.7071 -0.0000
vn -0.0000 0.7071 0.7071
vn 0.7071 0.7071 -0.0000
vn -0.0000 0.7071 -0.7071
vn -0.7071 -0.0000 0.7071
vt 0.629912 0.189956
vt 0.629912 0.009825
vt 0.509825 0.009825
vt 0.509825 0.189956
vt 0.990175 0.189956
vt 0.990175 0.009825
vt 0.870087 0.009825
vt 0.870087 0.189956
vt 0.870087 0.209606
vt 0.870087 0.389737
vt 0.629912 0.389737
vt 0.629912 0.209606
vt 0.129913 0.320346
vt 0.129913 0.179654
vt 0.990175 0.209606
vt 0.990175 0.389737
vt 0.509825 0.409388
vt 0.509825 0.589519
vt 0.750000 0.589519
vt 0.750000 0.409388
vt 0.750000 0.609169
vt 0.750000 0.789300
vt 0.509825 0.789300
vt 0.509825 0.609169
vt 0.009825 0.870087
vt 0.129913 0.990175
vt 0.370087 0.990175
vt 0.490175 0.870087
vt 0.490175 0.629912
vt 0.370087 0.509825
vt 0.129913 0.509825
vt 0.009825 0.629912
vt 0.179654 0.129913
vt 0.009825 0.129913
vt 0.129913 0.009825
vt 0.179654 0.370087
vt 0.129913 0.490175
vt 0.009825 0.370087
vt 0.320346 0.370087
vt 0.370087 0.320346
vt 0.490175 0.370087
vt 0.370087 0.490175
vt 0.370087 0.179654
vt 0.320346 0.129913
vt 0.370087 0.009825
vt 0.490175 0.129913
vt 0.509825 0.389737
vt 0.509825 0.209606
vt 0.546875 0.828125
vt 0.703125 0.828125
vt 0.703125 0.890625
vt 0.546875 0.890625
s 0
usemtl Material.001
f 14/1/1 4/2/1 3/3/1 16/4/1
f 22/5/2 8/6/2 7/7/2 24/8/2
f 6/9/3 18/10/3 12/11/3 1/12/3
f 15/13/4 9/14/4 26/14/4 27/13/4
f 18/10/5 6/9/5 5/15/5 20/16/5
f 2/17/6 10/18/6 16/19/6 3/20/6
f 4/2/7 14/1/7 24/8/7 7/7/7
f 8/21/8 22/22/8 20/23/8 5/24/8
f 3/25/9 4/26/9 7/27/9 8/28/9 5/29/9 6/30/9 1/31/9 2/32/9
f 11/33/10 9/14/10 10/34/10 12/35/10
f 15/13/11 13/36/11 14/37/11 16/38/11
f 23/39/12 21/40/12 22/41/12 24/42/12
f 19/43/13 17/44/13 18/45/13 20/46/13
f 9/14/14 15/13/14 16/38/14 10/34/14
f 17/44/15 11/33/15 12/35/15 18/45/15
f 20/46/16 22/41/16 21/40/16 19/43/16
f 24/42/17 14/37/17 13/36/17 23/39/17
f 1/12/18 12/11/18 10/47/18 2/48/18
f 30/40/4 29/39/4 28/36/4 27/13/4 26/14/4 25/33/4 32/44/4 31/43/4
f 13/36/4 15/13/4 27/13/4 28/36/4
f 23/39/4 13/36/4 28/36/4 29/39/4
f 9/14/4 11/33/4 25/33/4 26/14/4
f 19/43/4 21/40/4 30/40/4 31/43/4
f 17/44/4 19/43/4 31/43/4 32/44/4
f 21/40/4 23/39/4 29/39/4 30/40/4
f 11/33/4 17/44/4 32/44/4 25/33/4
f 26/49/8 27/50/8 33/51/8 34/52/8
f 31/49/8 30/50/8 35/51/8 36/52/8
f 32/50/7 25/49/7 37/52/7 38/51/7
f 29/50/7 28/49/7 39/52/7 40/51/7
